<svg xmlns="http://www.w3.org/2000/svg" viewBox="0 0 500 500"><g id="freepik--background-complete--inject-18"><path d="M82.59,347.06l-13.12.27-6.66.12c-2.23,0-4.47,0-6.7.05h-.44v-.44l-.06-11.19v-.51h.5l13.24.06c4.42,0,8.83.11,13.24.16h.28v.27c0,1.89-.09,3.78-.13,5.65Zm0,0-.14-5.66c0-1.86-.11-3.7-.13-5.53l.27.27c-4.41.05-8.82.16-13.24.16l-13.24.07.5-.5,0,11.19-.45-.45c2.18,0,4.36,0,6.55.05l6.58.12Z" style="fill:#ebebeb"></path><path d="M67.82,361.17l-13.12.27-6.66.12c-2.23,0-4.47,0-6.7.05H40.9v-.44L40.84,350v-.51h.5l13.24.06c4.41,0,8.83.11,13.24.16h.28V350c0,1.89-.08,3.78-.13,5.65Zm0,0-.14-5.66c-.05-1.86-.11-3.7-.13-5.53l.27.27c-4.41.05-8.83.16-13.24.16l-13.24.06.5-.49-.05,11.19-.45-.45c2.18,0,4.36,0,6.55,0l6.58.12Z" style="fill:#ebebeb"></path><path d="M170.78,202.49l-13.12.28-6.66.11c-2.23.05-4.47,0-6.7.06h-.44v-.45l-.06-11.19v-.5h.5l13.24.07c4.42,0,8.83.11,13.24.16h.28v.27c0,1.9-.09,3.79-.13,5.66Zm0,0-.14-5.65c0-1.86-.11-3.71-.13-5.54l.27.28c-4.41,0-8.82.15-13.24.16l-13.24.06.5-.5-.05,11.19-.45-.44c2.18,0,4.36,0,6.55,0l6.58.11Z" style="fill:#ebebeb"></path><path d="M156,216.6l-13.12.28-6.66.11c-2.23,0-4.47,0-6.7.06h-.44v-.45L129,205.41v-.5h.5l13.24.07c4.41,0,8.83.11,13.24.16h.28v.27c0,1.9-.08,3.79-.13,5.66Zm0,0-.14-5.65c-.05-1.86-.11-3.71-.13-5.54l.27.28c-4.41.05-8.83.15-13.24.16l-13.24.06.5-.5L130,216.6l-.45-.44c2.18,0,4.36,0,6.55.05l6.58.11Z" style="fill:#ebebeb"></path><path d="M141.3,202.49l-13.13.28-6.66.11c-2.22.05-4.46,0-6.69.06h-.45v-.45l-.05-11.19v-.5h.5l13.24.07c4.41,0,8.82.11,13.24.16h.27v.27c0,1.9-.08,3.79-.13,5.66Zm0,0-.14-5.65c0-1.86-.12-3.71-.13-5.54l.27.28c-4.42,0-8.83.15-13.24.16l-13.24.06.5-.5-.06,11.19-.44-.44c2.18,0,4.36,0,6.54,0l6.58.11Z" style="fill:#ebebeb"></path><path d="M458.66,361.17l-13.13.27-6.66.12c-2.22,0-4.46,0-6.69.05h-.45v-.44L431.68,350v-.51h.5l13.24.06c4.41,0,8.83.11,13.24.16h.27V350c0,1.89-.08,3.78-.13,5.65Zm0,0-.14-5.66c0-1.86-.12-3.7-.13-5.53l.27.27c-4.41.05-8.83.16-13.24.16l-13.24.06.5-.49-.06,11.19-.44-.45c2.18,0,4.36,0,6.54,0l6.58.12Z" style="fill:#ebebeb"></path><path d="M443.89,67.49l-13.13.27-6.66.12c-2.22,0-4.46,0-6.69.05H417v-.45l0-11.19v-.51h.51l13.24.06c4.41,0,8.82.11,13.24.16h.27v.27c0,1.9-.09,3.78-.13,5.65Zm0,0-.14-5.66c-.05-1.86-.12-3.7-.14-5.53l.28.27c-4.42,0-8.83.16-13.24.16l-13.24.07.5-.5-.06,11.19-.44-.45c2.18,0,4.35,0,6.54.06l6.58.11Z" style="fill:#ebebeb"></path><path d="M458.66,81.6l-13.13.27-6.66.12c-2.22,0-4.46,0-6.69.05h-.45V81.6l-.05-11.19V69.9h.5l13.24.06c4.41,0,8.83.11,13.24.16h.27v.27c0,1.89-.08,3.78-.13,5.65Zm0,0-.14-5.66c0-1.86-.12-3.7-.13-5.53l.27.27c-4.41,0-8.83.16-13.24.16l-13.24.07.5-.5-.06,11.19-.44-.45c2.18,0,4.36,0,6.54.06l6.58.11Z" style="fill:#ebebeb"></path><path d="M82.59,67.49l-13.12.27-6.66.12c-2.23,0-4.47,0-6.7.05h-.44v-.45L55.61,56.3v-.51h.5l13.24.06c4.42,0,8.83.11,13.24.16h.28v.27c0,1.9-.09,3.78-.13,5.65Zm0,0-.14-5.66c0-1.86-.11-3.7-.13-5.53l.27.27c-4.41,0-8.82.16-13.24.16l-13.24.07.5-.5,0,11.19L56.11,67c2.18,0,4.36,0,6.55.06l6.58.11Z" style="fill:#ebebeb"></path><rect x="365.53" y="113.63" width="73.88" height="73.88" style="fill:#ebebeb"></rect><path d="M403.69,125.49a2.49,2.49,0,0,1,2.52,2.51v1.28a21.23,21.23,0,0,1,9.05,3.22,3.12,3.12,0,0,1,1.75,2.8,3.21,3.21,0,0,1-3.27,3.21A3.37,3.37,0,0,1,412,138a21,21,0,0,0-6-2.57v11.21c8.88,2.22,12.68,5.78,12.68,12,0,6.43-5,10.69-12.44,11.39v3.51a2.49,2.49,0,0,1-2.52,2.51,2.54,2.54,0,0,1-2.57-2.51v-3.62a25.29,25.29,0,0,1-12-4.56,3.22,3.22,0,0,1-1.58-2.8,3.21,3.21,0,0,1,5.14-2.57,20.72,20.72,0,0,0,8.65,3.91V152.41c-8.53-2.22-12.5-5.43-12.5-12,0-6.25,5-10.57,12.26-11.16V128A2.54,2.54,0,0,1,403.69,125.49Zm-2.33,19.91V135.07c-3.74.35-5.61,2.33-5.61,4.9S396.86,143.94,401.36,145.4Zm4.61,8.12v10.63c3.74-.4,5.78-2.27,5.78-5.08C411.75,156.5,410.47,154.92,406,153.52Z" style="fill:#fff"></path><rect x="60.59" y="63.44" width="73.88" height="73.88" style="fill:#ebebeb"></rect><path d="M113.93,115.07H79.47L71,84.47l48.46,0,1.75-7.06h5.49v2h-3.93Zm-32.93-2h31.36L119,86.42l-45.33,0Z" style="fill:#fff"></path><polygon points="84.32 121.13 82.48 120.35 85.56 113.03 109.01 113.03 111.55 120.42 109.66 121.07 107.58 115.03 86.89 115.03 84.32 121.13" style="fill:#fff"></polygon><rect x="74.52" y="91.42" width="44" height="2" style="fill:#fff"></rect><rect x="76.35" y="98.92" width="39.8" height="2" transform="translate(-0.44 0.42) rotate(-0.25)" style="fill:#fff"></rect><rect x="78.45" y="106.6" width="36.07" height="2" style="fill:#fff"></rect><rect x="95.95" y="85.6" width="2" height="28.47" style="fill:#fff"></rect><rect x="89.33" y="85.55" width="2" height="28.57" transform="translate(-7.69 7.54) rotate(-4.58)" style="fill:#fff"></rect><rect x="82.2" y="85.36" width="2" height="28.95" transform="translate(-16.69 16.7) rotate(-10.42)" style="fill:#fff"></rect><rect x="89.17" y="98.83" width="28.57" height="2" transform="translate(-4.35 194.96) rotate(-85.4)" style="fill:#fff"></rect><rect x="96.1" y="98.83" width="28.95" height="2" transform="translate(-7.6 190.55) rotate(-79.59)" style="fill:#fff"></rect><path d="M83.4,125.05a4.31,4.31,0,1,1,4.31-4.31A4.31,4.31,0,0,1,83.4,125.05Zm0-6.62a2.31,2.31,0,1,0,2.31,2.31A2.32,2.32,0,0,0,83.4,118.43Z" style="fill:#fff"></path><path d="M110.51,125.05a4.31,4.31,0,1,1,4.31-4.31A4.31,4.31,0,0,1,110.51,125.05Zm0-6.62a2.31,2.31,0,1,0,2.31,2.31A2.32,2.32,0,0,0,110.51,118.43Z" style="fill:#fff"></path></g><g id="freepik--Shadow--inject-18"><ellipse cx="363.85" cy="463.73" rx="99.95" ry="8.29" style="fill:#ebebeb"></ellipse></g><g id="freepik--Plant--inject-18"><path d="M81.35,270.9s-23.46-3.29-18-31.6C63.37,239.3,89.58,245.18,81.35,270.9Z" style="fill:#FCE693"></path><path d="M81.35,270.9s-23.46-3.29-18-31.6C63.37,239.3,89.58,245.18,81.35,270.9Z" style="opacity:0.1"></path><path d="M80.16,265a44.64,44.64,0,0,0-1.6-4.22l-.06-.54-.09-1.17c-.07-.84-.12-1.69-.17-2.53-.1-1.69-.21-3.39-.24-5.08a.07.07,0,0,0-.14,0c0,1.7,0,3.39,0,5.08,0,.85.09,1.7.14,2.54,0,.19,0,.38,0,.56a50.13,50.13,0,0,0-4.7-8c-.81-1.12-1.65-2.21-2.56-3.25s-1.93-2.09-2.87-3.15c-.06-.07-.17,0-.1.11a42.16,42.16,0,0,1,4.52,6c.71,1.08,1.38,2.18,2,3.31l-.21-.09-.84-.34-1.91-.72-3.78-1.4c-.07,0-.12.1,0,.13,1.25.49,2.48,1,3.71,1.55l1.82.78.92.38a2.29,2.29,0,0,0,.62.22c.47.85.94,1.7,1.37,2.57a60.91,60.91,0,0,1,2.87,6.76l.17.48a13.6,13.6,0,0,0-1.93-.92l-2.42-1.11c-1.65-.75-3.28-1.52-4.86-2.41-.08-.05-.15.08-.07.12,1.61.89,3.19,1.82,4.81,2.7.81.44,1.62.86,2.44,1.26a7.71,7.71,0,0,0,2.21.89,27.46,27.46,0,0,1,1.53,6.65c.26,3.2.24,6.43.31,9.64,0,.05.08.05.09,0,.23-2.91.36-5.85.37-8.77A25.32,25.32,0,0,0,80.16,265Z" style="fill:#263238"></path><path d="M76.55,248.34a27.73,27.73,0,0,0-.23,5s.06,0,.07,0c.09-1.66.11-3.31.3-5C76.7,248.28,76.56,248.25,76.55,248.34Z" style="fill:#263238"></path><path d="M69.84,249.75a17.51,17.51,0,0,1-3-1.48c-.08-.05-.15.08-.07.13a11.48,11.48,0,0,0,3,1.45A.05.05,0,0,0,69.84,249.75Z" style="fill:#263238"></path><path d="M82.09,315.85c0-2.6-.06-5.19-.09-7.78,0-8.61-.12-17.21-.28-25.82q-.18-10.25-.48-20.5a.09.09,0,0,0,0-.08l0-5.6c0-.05-.06-.07-.12-.07s-.11,0-.11.07l0,5.61s-.06.05-.06.08c-.34,12.16-.65,24.32-.72,36.49,0,2.47,0,4.94,0,7.42Q80,317.57,80,329.46c0,1.26,0,2.52,0,3.78,0,7.26.07,14.51.07,21.77,0,.39.44.58.9.6S82,355.42,82,355c0-8,.06-16,.06-24C82.11,325.93,82.13,320.89,82.09,315.85Z" style="fill:#263238"></path><path d="M72.3,308s-11.28-8.36-22-2.71-12.38,27.42-12.38,27.42,15.72,2.25,25.62-7.18C73.09,316.42,72.3,308,72.3,308Z" style="fill:#FCE693"></path><path d="M72.3,308s-11.28-8.36-22-2.71-12.38,27.42-12.38,27.42,15.72,2.25,25.62-7.18C73.09,316.42,72.3,308,72.3,308Z" style="opacity:0.1"></path><path d="M75.37,308.49a13.41,13.41,0,0,0-6.53-.85,8.07,8.07,0,0,0-1.38-.14l-1.59-.12-3.29-.23c-2.23-.17-4.46-.3-6.68-.53-.08,0-.1.13,0,.14,2.2.28,4.39.6,6.6.82,1.13.11,2.26.23,3.4.31l.83.08-1,.25a26.6,26.6,0,0,0-5.11,2.08c-.89.16-1.77.41-2.64.61-1.4.33-2.79.69-4.17,1-2.74.72-5.45,1.53-8.17,2.32a.07.07,0,0,0,0,.14c2.72-.67,5.45-1.28,8.17-1.93,1.32-.31,2.64-.62,4-.95l1-.24a33.09,33.09,0,0,0-8,7,43.81,43.81,0,0,0-5.57,8.79c0,.08.07.16.12.08a43,43,0,0,1,6.74-8.85c0,.15-.09.3-.14.45l-.63,2c-.42,1.33-.84,2.66-1.24,4a.07.07,0,0,0,.14,0c.48-1.29.93-2.59,1.38-3.88.23-.64.45-1.27.67-1.91.12-.32.23-.65.34-1,0-.1.08-.2.11-.3a41.65,41.65,0,0,1,4-3.41,30.37,30.37,0,0,1,6-3.43l-.12.58L62.26,313q-.33,1.6-.63,3.21c-.43,2.18-.69,4.39-1.1,6.58a.07.07,0,0,0,.14,0c.5-2.19,1.16-4.35,1.65-6.56.24-1.1.49-2.2.72-3.3.1-.51.21-1,.31-1.55a8.15,8.15,0,0,0,.16-.86c.2-.08.4-.18.61-.25,3-1.1,6.23-1.9,9.39-1.29a9.22,9.22,0,0,1,6.79,5.44c.1.25.49.09.43-.16A8.7,8.7,0,0,0,75.37,308.49Z" style="fill:#263238"></path><path d="M58.1,317.78c-.31,1.43-.63,2.86-1,4.29a33.28,33.28,0,0,0-.79,4.17c0,.06.08.06.1,0a31.52,31.52,0,0,0,.95-4.2c.28-1.41.56-2.82.83-4.23C58.26,317.73,58.12,317.69,58.1,317.78Z" style="fill:#263238"></path><path d="M47.19,321.42c-1.43.73-2.82,1.55-4.33,2.15-.09,0,0,.18.06.13a46.21,46.21,0,0,0,4.31-2.23S47.23,321.4,47.19,321.42Z" style="fill:#263238"></path><path d="M74.84,292.62s-13.79.88-20.21-8.21-5-22.08-5-22.08,14.48,1.76,20.23,8.29S74.84,292.62,74.84,292.62Z" style="fill:#FCE693"></path><path d="M81.31,306.23c-.48-1.48-1.07-2.94-1.63-4.38s-1.11-2.77-1.71-4.13a85,85,0,0,0-4.14-8.13c-1-1.67-2-3.3-3.09-4.9,0-.25-.07-.49-.1-.74-.07-.42-.13-.85-.2-1.28-.13-.87-.29-1.74-.43-2.61-.32-1.91-.71-3.8-1-5.7,0-.09-.16-.09-.15,0,.28,1.88.47,3.77.73,5.66.13.92.25,1.85.39,2.77,0,.33.11.67.16,1A98.57,98.57,0,0,0,63.31,275c-.33-.39-.67-.76-1-1.13,0-.11-.08-.21-.12-.32s-.21-.52-.3-.79c-.21-.54-.4-1.09-.6-1.64-.39-1.08-.73-2.17-1-3.28a.07.07,0,1,0-.13,0c.27,1.13.57,2.26.9,3.38.16.54.34,1.07.53,1.6l.09.27c-1.76-1.92-3.6-3.77-5.45-5.6-.07-.07-.17,0-.1.1a98.5,98.5,0,0,1,9.77,12,9.54,9.54,0,0,0-1-.26c-1.06-.21-2.14-.36-3.21-.49-2.24-.29-4.48-.57-6.72-.92-.09,0-.13.12,0,.13,2.14.43,4.26.91,6.38,1.39,1,.23,2,.43,3,.63a18.1,18.1,0,0,1,2.42.69c.23.32.46.63.68.95,1,1.48,2,3,2.93,4.49l-1.41-.27c-1.06-.21-2.13-.4-3.2-.58-2.1-.34-4.21-.71-6.29-1.18a.07.07,0,0,0,0,.14c2.11.49,4.2,1.07,6.29,1.63,1,.26,2,.51,3,.74l1.53.33a3.79,3.79,0,0,0,.62.1c2,3.27,3.91,6.61,5.65,10,.77,1.5,1.51,3,2.23,4.54s1.37,3.17,2,4.76C80.92,306.7,81.42,306.57,81.31,306.23Z" style="fill:#263238"></path><path d="M67.19,274.54c-.26-1.32-.54-2.63-.83-3.94,0-.09-.15,0-.13,0,.26,1.3.51,2.59.74,3.89a39.37,39.37,0,0,0,.78,3.86s0,0,0,0A26.23,26.23,0,0,0,67.19,274.54Z" style="fill:#263238"></path><path d="M59.15,274.16c-.64-.32-1.31-.58-2-.84l-1-.41-.54-.21a2.34,2.34,0,0,1-.58-.26c-.1-.07-.17.11-.07.12a2.38,2.38,0,0,1,.59.25l.53.23,1,.45a18.75,18.75,0,0,0,2,.8C59.18,274.32,59.23,274.19,59.15,274.16Z" style="fill:#263238"></path><path d="M89,281.78s8.34-15.59,21-18,20.46,10.65,20.46,10.65-9.26,11.82-20.91,13.89S89,281.78,89,281.78Z" style="fill:#FCE693"></path><path d="M118.5,270.77a34.28,34.28,0,0,0-10,.12l.57-.31,2.81-1.45c2-1,3.92-2.09,6-2.91.1,0,0-.17-.06-.13-2,.93-4,1.7-6,2.62-1,.45-2,.93-3,1.45-.62.33-1.32.64-1.93,1a35.09,35.09,0,0,0-8.07,2.68l1.59-1.73c1.18-1.3,2.34-2.65,3.64-3.83a.07.07,0,1,0-.1-.1c-1.33,1.2-2.73,2.32-4,3.57-.63.61-1.22,1.24-1.81,1.89-.29.33-.58.66-.85,1a33.39,33.39,0,0,0-17,23c0,.09.11.14.13,0a38.45,38.45,0,0,1,9.33-15.79,36.77,36.77,0,0,1,17-9.84A37.41,37.41,0,0,1,118.48,271,.13.13,0,0,0,118.5,270.77Z" style="fill:#263238"></path><path d="M130.45,274.43s-9.26,11.83-20.91,13.89c-8.89,1.57-16.2-3.06-19.16-5.34l-.64-1.06s6-5.06,17.37-8S130.45,274.43,130.45,274.43Z" style="opacity:0.1"></path><path d="M111.12,265.21a32.67,32.67,0,0,0-2.82,1.86,17.86,17.86,0,0,0-2.44,2.24.07.07,0,1,0,.1.1c.85-.73,1.69-1.46,2.57-2.15a26.63,26.63,0,0,1,2.67-1.93C111.28,265.28,111.2,265.16,111.12,265.21Z" style="fill:#263238"></path><path d="M118.09,267.85c-.47.19-1,.36-1.42.56l-1.41.59a.08.08,0,1,0,0,.16l1.41-.57,1.41-.61C118.22,268,118.17,267.81,118.09,267.85Z" style="fill:#263238"></path><path d="M87.28,301.4s2.23,15.46,13.86,20.87,25.8,0,25.8,0S121.37,288.82,87.28,301.4Z" style="fill:#FCE693"></path><path d="M87.28,301.4s2.23,15.46,13.86,20.87,25.8,0,25.8,0S121.37,288.82,87.28,301.4Z" style="opacity:0.1"></path><path d="M118.93,312.21c-1.07-.12-2.14-.31-3.2-.5l-1.56-.29-.82-.17c-.31-.29-.62-.59-.94-.87a46.63,46.63,0,0,0-7.11-5.15A38.93,38.93,0,0,0,101,303h.22l3.82.16c2.56.12,5.11.18,7.66.34.09,0,.08-.14,0-.14-2.56-.17-5.1-.46-7.66-.68l-3.72-.33-1.91-.16-.49-.06c-.67-.24-1.33-.48-2-.69a18.24,18.24,0,0,0-9.85-.54c-2.92.75-5.84,2.67-6.6,5.75a.1.1,0,0,0,.19.07c1.09-2.58,3.95-3.87,6.53-4.41a15.48,15.48,0,0,1,5.26-.1,12.93,12.93,0,0,0,.59,2.34c.32,1.08.64,2.17,1,3.26.66,2.17,1.38,4.32,2,6.5a.07.07,0,1,0,.13,0c-.54-2.17-1-4.36-1.51-6.54-.26-1.06-.53-2.13-.79-3.2a18.78,18.78,0,0,0-.59-2.19,28.18,28.18,0,0,1,3,.71,43.33,43.33,0,0,1,5.27,1.93c.17,1.1.41,2.19.67,3.28.31,1.36.67,2.72,1.1,4.05a.07.07,0,0,0,.13,0c0-.08,0-.17,0-.25h0c-.26-1.27-.54-2.53-.81-3.79-.22-1-.41-2-.63-3.06,1.44.65,2.86,1.36,4.23,2.15,0,.31.11.63.15.92.09.53.18,1.06.28,1.59.22,1.19.46,2.38.74,3.56a55.78,55.78,0,0,0,2,6.72.1.1,0,0,0,0,.09l.07.08c0,.06.13,0,.12-.07-.54-2.3-1.15-4.57-1.66-6.87-.25-1.15-.5-2.29-.73-3.45-.12-.57-.22-1.15-.33-1.73,0-.16-.06-.34-.08-.51a45,45,0,0,1,4.52,3,48.87,48.87,0,0,1,6.93,6.32c.09.09.25,0,.17-.14a42.11,42.11,0,0,0-2.77-3.38c-.58-.62-1.19-1.23-1.81-1.82l.2,0,1.63.25c1.08.14,2.16.25,3.24.37C119,312.36,119,312.22,118.93,312.21Z" style="fill:#263238"></path><path d="M110.76,317.45h0c0-.13,0-.27-.07-.4s-.11-.33-.14-.5h0c-.24-1-.44-2.07-.63-3.12,0-.07-.13-.05-.13,0a12.79,12.79,0,0,0,.89,4s.09,0,.08,0Z" style="fill:#263238"></path><path d="M101,317.2a.07.07,0,0,0-.07-.06c-.33-1.37-.64-2.74-.92-4.12-.15-.72-.3-1.45-.44-2.17-.08-.4-.15-.79-.22-1.18a3.34,3.34,0,0,0-.25-1,.07.07,0,0,0-.13,0,6.68,6.68,0,0,0,.29,2.07c.14.76.29,1.51.46,2.26.33,1.52.72,3,1.15,4.55a.08.08,0,0,0,.15,0C101,317.43,101,317.32,101,317.2Z" style="fill:#263238"></path><path d="M117.87,307.76c-2.12-.29-4.25-.6-6.37-.86-.09,0-.13.13,0,.14,2.12.31,4.25.58,6.38.86C117.93,307.91,118,307.77,117.87,307.76Z" style="fill:#263238"></path><path d="M81.33,265.14s-7.12-31.22,26.42-43.85C107.75,221.29,117,262.38,81.33,265.14Z" style="fill:#FCE693"></path><path d="M88.57,247.43l.36-.22c.63-.34,1.26-.7,1.89-1.06L94.71,244c2.56-1.43,5.09-2.92,7.66-4.32a.07.07,0,1,0-.07-.12c-2.58,1.4-5.21,2.71-7.81,4.09l-3.84,2-1.57.83c1.12-2.12,2.31-4.2,3.63-6.21,1.75-2.67,3.67-5.22,5.67-7.71a.12.12,0,0,0-.17-.16,53.35,53.35,0,0,0-7.75,9.51c0-.11,0-.22,0-.32,0-.78.06-1.56.07-2.34,0-1.52-.05-3,0-4.57,0-.09-.14-.08-.14,0-.06,1.5-.24,3-.33,4.49,0,.75-.07,1.5-.09,2.24,0,.41-.06.87,0,1.31-.69,1.1-1.35,2.22-2,3.35a57.47,57.47,0,0,0-3,6.28c0-.77-.08-1.55-.12-2.33-.11-1.71-.31-3.41-.39-5.12a.07.07,0,1,0-.14,0c0,1.71,0,3.41,0,5.13,0,.85,0,1.7.11,2.56l.06.95A55.76,55.76,0,0,0,82,262.15a90.62,90.62,0,0,0-1.25,9.42s0,0,0,0a51.46,51.46,0,0,1,1.78-8.4c.42-1.48.85-2.94,1.33-4.4,1.39-.65,2.73-1.47,4.08-2.22s2.8-1.53,4.2-2.3c2.8-1.54,5.59-3.1,8.48-4.45.09,0,0-.16-.07-.13-2.93,1.33-5.87,2.59-8.74,4q-2.15,1.08-4.23,2.27c-1.17.66-2.36,1.31-3.48,2.07.33-1,.67-1.94,1-2.9A84.31,84.31,0,0,1,88.57,247.43Z" style="fill:#263238"></path><path d="M85.74,240.3c0-.09-.15-.09-.14,0,.12,1.78.18,3.56.37,5.34a.08.08,0,1,0,.15,0C86.06,243.85,85.87,242.08,85.74,240.3Z" style="fill:#263238"></path><path d="M101.82,246.26c-2.1.84-4.22,1.65-6.31,2.52-.06,0,0,.12,0,.1,2.12-.8,4.21-1.66,6.32-2.49C101.94,246.36,101.9,246.22,101.82,246.26Z" style="fill:#263238"></path><path d="M105,231.86a55.94,55.94,0,0,0-6,3.2c-.1.06,0,.21.1.15,1.94-1.13,3.92-2.22,5.94-3.23C105.16,231.94,105.09,231.82,105,231.86Z" style="fill:#263238"></path><rect x="56.14" y="332.63" width="48.36" height="50.98" style="fill:#455a64"></rect><rect x="52.81" y="350.67" width="2.47" height="87.32" style="fill:#263238"></rect><rect x="105.09" y="350.67" width="2.47" height="87.32" style="fill:#263238"></rect><rect x="80.27" y="350.67" width="2.47" height="87.32" style="fill:#263238"></rect><rect x="54.04" y="380.34" width="52.29" height="7.06" style="fill:#263238"></rect></g><g id="freepik--Floor--inject-18"><polygon points="37.93 438.06 90.94 437.82 143.96 437.73 250 437.56 356.04 437.73 409.06 437.82 462.07 438.06 409.06 438.31 356.04 438.39 250 438.56 143.96 438.39 90.94 438.31 37.93 438.06" style="fill:#263238"></polygon></g><g id="freepik--Device--inject-18"><path d="M334.52,55.14H165.46a17.26,17.26,0,0,0-17.1,17.42v348A17.27,17.27,0,0,0,165.46,438H334.52a17.29,17.29,0,0,0,17.12-17.42v-348A17.28,17.28,0,0,0,334.52,55.14Zm6.42,354.67c0,9.16-6.86,16.57-15.32,16.57H174.38c-8.48,0-15.34-7.41-15.34-16.57V85.75c0-18.66,6.86-19.57,15.34-19.57h30.3c1.76,0,3.2,2,3.2,4.48v1.07c0,5.81,3.18,5.83,7.08,5.83H285c3.94,0,7.1,0,7.1-5.83V70.66c0-2.48,1.42-4.48,3.21-4.48h30.29c8.46,0,15.32,2.48,15.32,19.57Z" style="fill:#263238"></path><path d="M340.94,85.75V409.81c0,9.16-6.86,16.57-15.32,16.57H174.38c-8.48,0-15.34-7.41-15.34-16.57V85.75c0-18.66,6.86-19.57,15.34-19.57h30.3c1.76,0,3.2,2,3.2,4.48v1.07c0,5.81,3.18,5.83,7.08,5.83H285c3.94,0,7.1,0,7.1-5.83V70.66c0-2.48,1.42-4.48,3.21-4.48h30.29C334.08,66.18,340.94,68.66,340.94,85.75Z" style="fill:#fff"></path><path d="M340.94,85.75v32.49H159V85.75c0-18.66,6.86-19.57,15.34-19.57h30.3c1.76,0,3.2,2,3.2,4.48v1.07c0,5.81,3.18,5.83,7.08,5.83H285c3.94,0,7.1,0,7.1-5.83V70.66c0-2.48,1.42-4.48,3.21-4.48h30.29C334.08,66.18,340.94,68.66,340.94,85.75Z" style="fill:#FCE693"></path><g id="freepik--u5Zjqx--inject-18"><path d="M199.45,73.46l-.29.29-.17.16a4,4,0,0,0-5.64,0l-.16-.17-.29-.29h0l0,0,.37-.33a4.46,4.46,0,0,1,.86-.54,4.18,4.18,0,0,1,1.13-.38,5.58,5.58,0,0,1,.57-.08h.5l.38,0a4.51,4.51,0,0,1,1,.25,4.58,4.58,0,0,1,.71.33,4.48,4.48,0,0,1,.67.47l.31.28Z" style="fill:#fff"></path><path d="M194.27,74.83l-.46-.46a3.31,3.31,0,0,1,1.88-.94,3.26,3.26,0,0,1,2.83.94l-.46.46a2.61,2.61,0,0,0-1.89-.78A2.65,2.65,0,0,0,194.27,74.83Z" style="fill:#fff"></path><path d="M197.6,75.29l-.46.46a1.35,1.35,0,0,0-1-.4,1.32,1.32,0,0,0-1,.41l-.46-.46A2,2,0,0,1,197.6,75.29Z" style="fill:#fff"></path><path d="M196.58,76.17a.41.41,0,0,1-.41.42.42.42,0,0,1-.42-.42.41.41,0,0,1,.42-.41A.41.41,0,0,1,196.58,76.17Z" style="fill:#fff"></path></g><path d="M170.9,74.34a1.21,1.21,0,1,1,1.21,1.21A1.21,1.21,0,0,1,170.9,74.34Z" style="fill:#fff"></path><path d="M174.7,74.34a1.21,1.21,0,1,1,1.21,1.21A1.21,1.21,0,0,1,174.7,74.34Z" style="fill:#fff"></path><path d="M178.5,74.34a1.21,1.21,0,1,1,1.2,1.21A1.21,1.21,0,0,1,178.5,74.34Z" style="fill:#fff"></path><path d="M182.3,74.34a1.21,1.21,0,1,1,1.2,1.21A1.21,1.21,0,0,1,182.3,74.34Z" style="fill:#fff"></path><path d="M186.09,74.34a1.21,1.21,0,1,1,1.21,1.21A1.21,1.21,0,0,1,186.09,74.34Z" style="fill:#fff"></path><path d="M327.3,77h-9.82V72.43h9.82Zm-9.32-.5h8.82V72.93H318Z" style="fill:#fff"></path><rect x="318.3" y="73.2" width="6.33" height="3" style="fill:#fff"></rect><rect x="327.3" y="73.48" width="0.87" height="2.43" style="fill:#fff"></rect><rect x="320.11" y="103.33" width="8.21" height="0.95" style="fill:#fff"></rect><rect x="320.11" y="106.48" width="8.21" height="0.95" style="fill:#fff"></rect><rect x="320.11" y="109.63" width="8.21" height="0.95" style="fill:#fff"></rect><circle cx="322" cy="103.8" r="1.42" style="fill:#fff"></circle><path d="M327.58,107a1.43,1.43,0,1,1-1.43-1.43A1.43,1.43,0,0,1,327.58,107Z" style="fill:#fff"></path><circle cx="323.31" cy="110.11" r="1.42" style="fill:#fff"></circle><path d="M238.26,104.85l-2,4.78s0,.06,0,.07h0a.1.1,0,0,1,0,.05s0,0,0,0a.09.09,0,0,0-.05,0h0s0,0-.08,0h0l-.07,0h-.19l-.06,0h0a.21.21,0,0,1-.07,0h0s0,0-.06,0,0,0,0,0l0-.05h0s0,0,0-.07l-1.07-2.54-1.08,2.54a.11.11,0,0,1,0,.07h0l0,.05v0a.07.07,0,0,0-.05,0h0l-.07,0h0l-.07,0h-.2l-.06,0h0l-.07,0h0s0,0-.06,0,0,0,0,0a.1.1,0,0,1,0-.05h0s0,0,0-.07l-2-4.78a.45.45,0,0,1,.24-.58.44.44,0,0,1,.59.23l1.6,3.8,1.06-2.52a.47.47,0,0,1,.43-.28.49.49,0,0,1,.43.28l1.05,2.52,1.6-3.8a.45.45,0,0,1,.6-.23A.44.44,0,0,1,238.26,104.85Z" style="fill:#fff"></path><path d="M239.39,104.62a.44.44,0,0,1,.45-.45.45.45,0,0,1,.46.45v4.84a.46.46,0,0,1-.46.45.45.45,0,0,1-.45-.45Z" style="fill:#fff"></path><path d="M241.65,108.48a.44.44,0,0,1,.6-.06,2.72,2.72,0,0,0,1.57.64,1.8,1.8,0,0,0,1-.31.74.74,0,0,0,.35-.59.47.47,0,0,0-.08-.26.78.78,0,0,0-.24-.25,3.43,3.43,0,0,0-1.13-.38h0a4.54,4.54,0,0,1-1.06-.32,1.76,1.76,0,0,1-.76-.64,1.21,1.21,0,0,1-.19-.67,1.51,1.51,0,0,1,.66-1.2,2.39,2.39,0,0,1,1.41-.44,3.22,3.22,0,0,1,1.79.66.43.43,0,0,1-.47.71,2.35,2.35,0,0,0-1.32-.53,1.56,1.56,0,0,0-.91.28.63.63,0,0,0-.32.52.44.44,0,0,0,.06.23.89.89,0,0,0,.22.21,2.77,2.77,0,0,0,1,.36h0a5.09,5.09,0,0,1,1.14.34,2,2,0,0,1,.82.69,1.32,1.32,0,0,1,.19.69,1.56,1.56,0,0,1-.7,1.27,2.54,2.54,0,0,1-1.52.47,3.54,3.54,0,0,1-2.1-.82A.45.45,0,0,1,241.65,108.48Z" style="fill:#fff"></path><path d="M247.31,109.46v-4.84a.44.44,0,0,1,.45-.45.45.45,0,0,1,.46.45v2h2.12v-2a.46.46,0,0,1,.91,0v4.84a.46.46,0,0,1-.91,0v-2h-2.12v2a.46.46,0,0,1-.46.45A.45.45,0,0,1,247.31,109.46Z" style="fill:#fff"></path><path d="M253.13,109.46v-4.84a.44.44,0,0,1,.45-.45.46.46,0,0,1,.46.45V109h2.22a.46.46,0,0,1,.45.46.46.46,0,0,1-.45.45h-2.68A.45.45,0,0,1,253.13,109.46Z" style="fill:#fff"></path><path d="M257.85,104.62a.44.44,0,0,1,.45-.45.46.46,0,0,1,.46.45v4.84a.46.46,0,0,1-.46.45.44.44,0,0,1-.45-.45Z" style="fill:#fff"></path><path d="M260.11,108.48a.44.44,0,0,1,.6-.06,2.69,2.69,0,0,0,1.57.64,1.74,1.74,0,0,0,1-.31.73.73,0,0,0,.36-.59.47.47,0,0,0-.08-.26.91.91,0,0,0-.24-.25,3.43,3.43,0,0,0-1.13-.38h0a4.61,4.61,0,0,1-1.05-.32,1.79,1.79,0,0,1-.77-.64,1.29,1.29,0,0,1-.18-.67,1.5,1.5,0,0,1,.65-1.2,2.44,2.44,0,0,1,1.42-.44,3.22,3.22,0,0,1,1.79.66.42.42,0,0,1,.11.58.41.41,0,0,1-.58.13,2.38,2.38,0,0,0-1.32-.53,1.6,1.6,0,0,0-.92.28.64.64,0,0,0-.31.52.44.44,0,0,0,.06.23.74.74,0,0,0,.22.21,2.71,2.71,0,0,0,1,.36h0a5,5,0,0,1,1.13.34,1.92,1.92,0,0,1,.82.69,1.24,1.24,0,0,1,.2.69,1.57,1.57,0,0,1-.71,1.27,2.51,2.51,0,0,1-1.51.47,3.51,3.51,0,0,1-2.1-.82A.44.44,0,0,1,260.11,108.48Z" style="fill:#fff"></path><path d="M269.15,105.08h-1.3v4.38a.45.45,0,1,1-.9,0v-4.38h-1.3a.46.46,0,0,1-.45-.46.44.44,0,0,1,.45-.45h3.5a.44.44,0,0,1,.45.45A.46.46,0,0,1,269.15,105.08Z" style="fill:#fff"></path><path d="M177.3,107.28a10.89,10.89,0,0,1-3,3,10.89,10.89,0,0,1-2.95-3c-1-1.8-.44-3.64,1-3.64,1.57,0,2,2,2,2s.41-2,2-2C177.74,103.64,178.28,105.48,177.3,107.28Z" style="fill:#fff"></path><path d="M259.55,70.3H240.44a1.18,1.18,0,0,1-1.18-1.18h0a1.18,1.18,0,0,1,1.18-1.18h19.11a1.18,1.18,0,0,1,1.18,1.18h0A1.18,1.18,0,0,1,259.55,70.3Z" style="fill:#fff"></path><rect x="170.52" y="132.34" width="158.96" height="60.91" style="fill:#ebebeb"></rect><rect x="176.7" y="139.31" width="46.97" height="46.97" style="fill:#fff"></rect><path d="M236.76,183.28a10.79,10.79,0,0,1-2.95,3,10.65,10.65,0,0,1-2.95-3c-1-1.8-.44-3.65,1-3.65,1.57,0,2,2,2,2s.41-2,2-2C237.2,179.63,237.74,181.48,236.76,183.28Z" style="fill:#FCE693"></path><path d="M322.61,180.49a5.78,5.78,0,1,1-5.78-5.78A5.77,5.77,0,0,1,322.61,180.49Z" style="fill:#fff"></path><polygon points="317.7 183.79 313.73 183.79 314.11 178.02 319.59 178.02 319.83 181.27 319.28 181.31 319.07 178.58 314.63 178.58 314.32 183.24 317.7 183.24 317.7 183.79" style="fill:#FCE693"></polygon><path d="M318.14,178.58h-2.52v-1a1.26,1.26,0,0,1,2.52,0Zm-2-.56h1.41v-.45a.7.7,0,0,0-.7-.7.7.7,0,0,0-.71.7Z" style="fill:#FCE693"></path><rect x="319.27" y="182.04" width="0.55" height="2.27" style="fill:#FCE693"></rect><rect x="318.41" y="182.9" width="2.27" height="0.55" style="fill:#FCE693"></rect><rect x="230.36" y="139.85" width="34.53" height="2.71" style="fill:#dbdbdb"></rect><rect x="230.36" y="164.56" width="20.92" height="2.71" style="fill:#c7c7c7"></rect><rect x="230.36" y="148.74" width="60.54" height="2.71" style="fill:#dbdbdb"></rect><rect x="230.36" y="153.39" width="49.44" height="2.71" style="fill:#dbdbdb"></rect><path d="M212.67,176.78h-25l.08-1,.05-.76.07-.9,0-.77.07-.9,0-.77.07-.9.06-.76,1.54-21.19h4.1a6.35,6.35,0,0,0,12.69,0h4.1L212.17,170l.06.76.07.9,0,.77.07.9.05.77.07.9.06.76Z" style="fill:#c7c7c7"></path><polygon points="189.74 148.8 182.09 158.28 188.65 163.75 189.74 148.8" style="fill:#263238"></polygon><polygon points="210.63 148.8 218.28 158.28 211.72 163.75 210.63 148.8" style="fill:#263238"></polygon><rect x="162.93" y="198.73" width="174.15" height="66.73" style="fill:#FCE693"></rect><rect x="162.93" y="198.73" width="174.15" height="66.73" style="fill:#fff;opacity:0.7000000000000001"></rect><rect x="169.7" y="206.37" width="51.45" height="51.45" style="fill:#fff"></rect><path d="M235.5,254.54a12,12,0,0,1-3.24,3.28,11.86,11.86,0,0,1-3.23-3.28c-1.07-2-.48-4,1.06-4,1.73,0,2.17,2.15,2.17,2.15s.45-2.15,2.17-2.15C236,250.55,236.57,252.57,235.5,254.54Z" style="fill:#FCE693"></path><circle cx="323.22" cy="251.49" r="6.33" style="fill:#fff"></circle><polygon points="324.17 255.11 319.82 255.11 320.23 248.78 326.24 248.78 326.5 252.34 325.9 252.38 325.67 249.39 320.8 249.39 320.46 254.5 324.17 254.5 324.17 255.11" style="fill:#FCE693"></polygon><path d="M324.65,249.39h-2.76v-1.1a1.38,1.38,0,1,1,2.76,0Zm-2.15-.61H324v-.49a.77.77,0,1,0-1.54,0Z" style="fill:#FCE693"></path><rect x="325.88" y="253.18" width="0.61" height="2.49" style="fill:#FCE693"></rect><rect x="324.94" y="254.13" width="2.49" height="0.61" style="fill:#FCE693"></rect><rect x="228.49" y="206.97" width="37.83" height="2.97" style="fill:#FCE693"></rect><rect x="228.49" y="234.03" width="22.92" height="2.97" style="fill:#263238"></rect><rect x="228.49" y="216.7" width="66.33" height="2.97" style="fill:#FCE693"></rect><rect x="228.49" y="221.8" width="54.16" height="2.97" style="fill:#FCE693"></rect><path d="M204,234.11a7.48,7.48,0,0,1-6.87-2.14h-3.47a7.46,7.46,0,0,1-6.87,2.13c-4.55-.71-6.15-5.85-4.55-9.52s2.28-4.09,2.78-5.57c.56-1.69,1.77-7,2.36-7.4s2,0,1.94.65-2.09,8.8-1.86,9.24,3,2.09,4.3,3.71,2.14,4,3.64,4,2.36-2.37,3.63-4,4.06-3.28,4.3-3.71-1.81-8.57-1.86-9.24,1.35-1.06,1.94-.65,1.8,5.71,2.37,7.4c.49,1.48,1.18,1.89,2.78,5.57S208.59,233.4,204,234.11Z" style="fill:#FCE693"></path><path d="M209.19,242.57c-.36.06-5.45,1.25-8.06,4a24.77,24.77,0,0,0-3.9,5.92c-.3.29-1.8.29-1.8.29s-1.5,0-1.8-.29a25.34,25.34,0,0,0-3.91-5.92c-2.6-2.72-7.69-3.91-8.06-4s-.17-3.61.48-3.38c3.72,1.35,12.79,1.49,13.29,1.49s9.57-.14,13.28-1.48C209.36,239,209.56,242.51,209.19,242.57Z" style="fill:#FCE693"></path><circle cx="185.01" cy="242.03" r="0.85" style="fill:#FCE693"></circle><circle cx="190.22" cy="242.03" r="0.85" style="fill:#FCE693"></circle><circle cx="192.82" cy="245.89" r="0.85" style="fill:#FCE693"></circle><circle cx="195.43" cy="249.78" r="0.85" style="fill:#FCE693"></circle><circle cx="195.43" cy="242.03" r="0.85" style="fill:#FCE693"></circle><circle cx="198.03" cy="245.89" r="0.85" style="fill:#FCE693"></circle><circle cx="200.64" cy="242.03" r="0.85" style="fill:#FCE693"></circle><path d="M206.69,242a.85.85,0,1,1-.84-.85A.85.85,0,0,1,206.69,242Z" style="fill:#FCE693"></path><path d="M185.86,242a.85.85,0,1,1-.85-.85A.85.85,0,0,1,185.86,242Zm4.36-.85a.85.85,0,1,0,.85.85A.85.85,0,0,0,190.22,241.18Zm5.21,0a.85.85,0,1,0,.85.85A.85.85,0,0,0,195.43,241.18Zm5.21,0a.85.85,0,1,0,.85.85A.85.85,0,0,0,200.64,241.18Zm5.21,0a.85.85,0,1,0,.84.85A.85.85,0,0,0,205.85,241.18Zm-10.42,7.75a.85.85,0,1,0,.85.85A.85.85,0,0,0,195.43,248.93ZM192.82,245a.85.85,0,1,0,.85.85A.85.85,0,0,0,192.82,245Zm5.21,0a.85.85,0,1,0,.85.85A.85.85,0,0,0,198,245Z" style="fill:#fff"></path><path d="M185.86,219.58a.85.85,0,0,1-.85.85.79.79,0,0,1-.52-.19,7.29,7.29,0,0,0,.56-1.23c0-.08,0-.17.08-.27A.85.85,0,0,1,185.86,219.58Zm19.95-.57c0-.08-.05-.16-.09-.26a.82.82,0,0,0-.72.83.85.85,0,0,0,.85.85.78.78,0,0,0,.51-.19A7.27,7.27,0,0,1,205.81,219Zm-18.2-4.17a.85.85,0,1,0,.85.85A.85.85,0,0,0,187.61,214.84Zm15.63,0a.85.85,0,1,0,.85.85A.85.85,0,0,0,203.24,214.84ZM185,226.47a.85.85,0,1,0,.85.85A.85.85,0,0,0,185,226.47Zm5.21,0a.85.85,0,1,0,.85.85A.85.85,0,0,0,190.22,226.47Zm10.42,0a.85.85,0,1,0,.85.85A.85.85,0,0,0,200.64,226.47Zm5.21,0a.85.85,0,1,0,.84.85A.85.85,0,0,0,205.85,226.47ZM183,222.89c-.19.4-.41.86-.64,1.39a.85.85,0,0,0,.85-.84A.84.84,0,0,0,183,222.89Zm4.57-.3a.85.85,0,1,0,.85.85A.85.85,0,0,0,187.61,222.59Zm15.63,0a.85.85,0,1,0,.85.85A.85.85,0,0,0,203.24,222.59Zm4.57.3a.84.84,0,0,0-.21.55.85.85,0,0,0,.85.84C208.22,223.75,208,223.29,207.81,222.89Zm-25.41,7.44a.64.64,0,0,0-.2,0,6.86,6.86,0,0,0,.79,1.43.84.84,0,0,0,.26-.61A.85.85,0,0,0,182.4,230.33Zm5.21,0a.85.85,0,1,0,.85.85A.85.85,0,0,0,187.61,230.33Zm5.21,0a.85.85,0,1,0,.85.85A.85.85,0,0,0,192.82,230.33Zm5.21,0a.85.85,0,1,0,.85.85A.85.85,0,0,0,198,230.33Zm5.21,0a.85.85,0,1,0,.85.85A.85.85,0,0,0,203.24,230.33Zm5.21,0a.85.85,0,0,0-.85.85.84.84,0,0,0,.26.61,5.86,5.86,0,0,0,.79-1.43A.64.64,0,0,0,208.45,230.33Z" style="fill:#fff"></path><rect x="170.52" y="271.61" width="158.96" height="60.91" style="fill:#ebebeb"></rect><rect x="176.7" y="278.58" width="46.97" height="46.97" style="fill:#fff"></rect><path d="M236.76,322.55a10.73,10.73,0,0,1-2.95,3,10.6,10.6,0,0,1-2.95-3c-1-1.8-.44-3.64,1-3.64,1.57,0,2,2,2,2s.41-2,2-2C237.2,318.91,237.74,320.75,236.76,322.55Z" style="fill:#FCE693"></path><path d="M322.61,319.77a5.78,5.78,0,1,1-5.78-5.78A5.78,5.78,0,0,1,322.61,319.77Z" style="fill:#fff"></path><polygon points="317.7 323.07 313.73 323.07 314.11 317.3 319.59 317.3 319.83 320.54 319.28 320.58 319.07 317.85 314.63 317.85 314.32 322.51 317.7 322.51 317.7 323.07" style="fill:#FCE693"></polygon><path d="M318.14,317.85h-2.52v-1a1.26,1.26,0,1,1,2.52,0Zm-2-.55h1.41v-.45a.7.7,0,0,0-.7-.71.71.71,0,0,0-.71.71Z" style="fill:#FCE693"></path><rect x="319.27" y="321.32" width="0.55" height="2.27" style="fill:#FCE693"></rect><rect x="318.41" y="322.17" width="2.27" height="0.55" style="fill:#FCE693"></rect><rect x="230.36" y="279.13" width="34.53" height="2.71" style="fill:#dbdbdb"></rect><rect x="230.36" y="303.83" width="20.92" height="2.71" style="fill:#c7c7c7"></rect><rect x="230.36" y="288.01" width="60.54" height="2.71" style="fill:#dbdbdb"></rect><rect x="230.36" y="292.67" width="49.44" height="2.71" style="fill:#dbdbdb"></rect><polygon points="209.41 282.82 209.41 284.97 200.19 284.97 200.19 284.97 190.96 284.97 190.96 282.82 209.41 282.82" style="fill:#455a64"></polygon><path d="M206.73,286.28h2.68v3C206.78,289.17,206.73,286.28,206.73,286.28Z" style="fill:#455a64"></path><path d="M209.41,290.81v30.51h-7.13l-2.09-28.23-2.1,28.23H191V290.81a4.47,4.47,0,0,0,4-4.53h4.43c0,2.37-.07,4.47.76,4.48h0c.83,0,.77-2.11.77-4.48h4.42A4.47,4.47,0,0,0,209.41,290.81Z" style="fill:#455a64"></path><path d="M191,289.31v-3h2.68S193.59,289.17,191,289.31Z" style="fill:#455a64"></path><rect x="170.52" y="338.25" width="158.96" height="60.91" style="fill:#ebebeb"></rect><rect x="176.7" y="345.22" width="46.97" height="46.97" style="fill:#fff"></rect><path d="M236.76,389.19a10.89,10.89,0,0,1-2.95,3,10.75,10.75,0,0,1-2.95-3c-1-1.8-.44-3.64,1-3.64,1.57,0,2,2,2,2s.41-2,2-2C237.2,385.55,237.74,387.39,236.76,389.19Z" style="fill:#FCE693"></path><circle cx="316.83" cy="386.41" r="5.78" style="fill:#fff"></circle><polygon points="317.7 389.71 313.73 389.71 314.11 383.94 319.59 383.94 319.83 387.18 319.28 387.22 319.07 384.49 314.63 384.49 314.32 389.15 317.7 389.15 317.7 389.71" style="fill:#FCE693"></polygon><path d="M318.14,384.49h-2.52v-1a1.26,1.26,0,0,1,2.52,0Zm-2-.55h1.41v-.46a.7.7,0,0,0-.7-.7.7.7,0,0,0-.71.7Z" style="fill:#FCE693"></path><rect x="319.27" y="387.95" width="0.55" height="2.27" style="fill:#FCE693"></rect><rect x="318.41" y="388.81" width="2.27" height="0.55" style="fill:#FCE693"></rect><rect x="230.36" y="345.76" width="34.53" height="2.71" style="fill:#dbdbdb"></rect><rect x="230.36" y="370.47" width="20.92" height="2.71" style="fill:#c7c7c7"></rect><rect x="230.36" y="354.65" width="60.54" height="2.71" style="fill:#dbdbdb"></rect><rect x="230.36" y="359.3" width="49.44" height="2.71" style="fill:#dbdbdb"></rect><path d="M215.8,379.66c-1,.33-30,.41-31.11-.29-.42-.27-.81-16.93-.38-21.87l18.69.16s.12,11.95.35,12.06c1.86.88,10.47,5,11.47,5.78S216.82,379.32,215.8,379.66Z" style="fill:#FCE693"></path><path d="M215.39,378.49c-4.85-.15-24.46-.31-29.28-.1,0,0,0,0,0,0,4.81.26,24.42.27,29.28.15C215.5,378.57,215.5,378.5,215.39,378.49Z" style="fill:#263238"></path><path d="M213,374.45a3.88,3.88,0,0,0-2.92,1.16,3.77,3.77,0,0,0-1.1,2.59s.05,0,.06,0a4.5,4.5,0,0,1,4-3.69S213,374.45,213,374.45Z" style="fill:#263238"></path><path d="M188.17,357.54c.21,3.25.22,6.5.25,9.75s0,6.51-.25,9.76c-.2-3.25-.22-6.51-.25-9.76S188,360.79,188.17,357.54Z" style="fill:#263238"></path><path d="M238.45,411.61a3.94,3.94,0,1,1-3.93-3.93A3.93,3.93,0,0,1,238.45,411.61Z" style="fill:#FCE693"></path><circle cx="250" cy="411.61" r="2.53" style="fill:#dbdbdb"></circle><path d="M268,411.61a2.54,2.54,0,1,1-2.54-2.53A2.54,2.54,0,0,1,268,411.61Z" style="fill:#dbdbdb"></path></g><g id="freepik--shopping-bag--inject-18"><polygon points="190.96 437.98 105.59 437.98 118.05 351.04 178.51 351.04 190.96 437.98" style="fill:#FCE693"></polygon><polygon points="178.51 351.03 169.02 437.99 190.96 437.99 178.51 351.03" style="opacity:0.1"></polygon><path d="M135.52,357.12l-3.56-.75c0-.07,1.56-7.38,3.22-14.76,1.84-8.23,9.93-12,16.69-10.93s10.6,6.3,9.9,13.29c-.88,8.76-1.55,12.9-1.57,13.07l-3.59-.58s.67-4.22,1.54-12.85c.75-7.51-5.06-9.05-6.86-9.34-5.1-.83-11.19,2-12.57,8.14C137.08,349.76,135.53,357.05,135.52,357.12Z" style="fill:#455a64"></path><g style="opacity:0.1"><polygon points="170.41 437.71 169.95 436.93 181.35 430.35 190.31 436.94 189.77 437.67 181.29 431.43 170.41 437.71"></polygon><rect x="179.74" y="364.26" width="0.91" height="66.65" transform="translate(-13.41 6.35) rotate(-1.95)"></rect></g><path d="M137.36,356.75a3.62,3.62,0,1,1-3.62-3.63A3.62,3.62,0,0,1,137.36,356.75Z" style="fill:#455a64"></path><path d="M161.75,356.75a3.63,3.63,0,1,1-3.63-3.63A3.63,3.63,0,0,1,161.75,356.75Z" style="fill:#455a64"></path></g><g id="freepik--Character--inject-18"><path d="M391.41,163.57c15.6,9.9,43.42,39,40.89,46.59-5.11,15.27-25.59,35.65-31,39.58-3.12,2.29-26.14-18.39-23.16-21.27,3.48-3.36,24.92-21.44,25.07-23.32.11-1.44-10.81-17.39-18.78-30.9C375.22,158.58,384,158.86,391.41,163.57Z" style="fill: rgb(235, 148, 129);"></path><path d="M381.44,226.57s-10.22,5.87-16.73,10c-3.63,2.31-9.49,6.84-11.38,9.76-2.82,4.37-11.84,24.45-7,26.74,4.36,2.07,9.92-16.16,9.92-16.16s-7.23,17.9-1.52,19.43,9.25-19.9,9.25-19.9-7,18.56-.88,19.21c4.65.49,8.94-18.75,8.94-18.75s-5.92,16-1.17,16.71c5.25.78,10.34-16.73,10.34-16.73,12.38-.23,20-4.76,22.57-11C404.29,244.7,381.44,226.57,381.44,226.57Z" style="fill: rgb(235, 148, 129);"></path><path d="M358.34,250.58c-.93,2.07-1.88,4.16-2.62,6.31s-1.4,4.32-1.94,6.53a38.13,38.13,0,0,0-1.26,8.78c.53-5.25,3.06-13,3.8-15.13s1.36-4.32,2.1-6.47C358.44,250.55,358.36,250.53,358.34,250.58Z" style="fill:#263238"></path><path d="M366.14,253.1c-1.07,2.7-2.23,5.34-3.18,8.08s-1.6,5.41-2.35,8.2c-.06.21.07.17.14,0,.87-2.76,1.88-5.24,2.77-8s1.69-5.53,2.68-8.24C366.22,253.08,366.15,253.06,366.14,253.1Z" style="fill:#263238"></path><path d="M373.22,254.07a65.66,65.66,0,0,0-3.91,12.72c0,.22.12.15.19-.07,1.22-4.25,2.14-7.6,3.86-12.59C373.39,254.05,373.26,254,373.22,254.07Z" style="fill:#263238"></path><path d="M416.31,434.08c3.78-2,8.9-3,12.89-1.12.15.07.05.29-.1.29a59.49,59.49,0,0,0-12.61,1.33A.27.27,0,0,1,416.31,434.08Z" style="fill:#263238"></path><path d="M414,436.76c3.78-2,8.9-3,12.89-1.12.15.07.05.29-.1.29a59.42,59.42,0,0,0-12.61,1.33A.27.27,0,0,1,414,436.76Z" style="fill:#263238"></path><path d="M411.63,439.44c3.78-2,8.89-3,12.89-1.12.15.07,0,.29-.1.29a60.24,60.24,0,0,0-12.62,1.33A.27.27,0,0,1,411.63,439.44Z" style="fill:#263238"></path><path d="M409.28,442.12c3.79-2,8.9-3,12.89-1.12.16.07.05.29-.09.29a59.6,59.6,0,0,0-12.62,1.34A.27.27,0,0,1,409.28,442.12Z" style="fill:#263238"></path><path d="M409.54,432.31c3.55,1.3,7.54,1,11.26,1.18a.52.52,0,0,0,.47-.7.12.12,0,0,0,.05-.18,22.55,22.55,0,0,0-9.15-7.22c-2.13-.88-5.39-.91-6.27,1.77S407.46,431.55,409.54,432.31Zm-2.06-2.9c-2.13-4.19,3.35-3.39,4.9-2.69a26.09,26.09,0,0,1,2.87,1.62c1.93,1.23,3.65,2.7,5.43,4.1-1.82-.19-3.64-.22-5.46-.35C413,431.94,408.65,431.71,407.48,429.41Z" style="fill:#263238"></path><path d="M432.78,422.18c-1.78-2.2-4.81-1-6.5.56a22.57,22.57,0,0,0-6,10,.11.11,0,0,0,.1.15c0,.32.34.65.69.49,3.42-1.47,7.25-2.62,10.11-5.1C432.87,426.84,434.46,424.26,432.78,422.18Zm-7,7.91c-1.66.77-3.35,1.45-5,2.27,1.17-1.95,2.26-3.93,3.62-5.76a24.6,24.6,0,0,1,2.11-2.53c1.2-1.21,6-3.9,5.54.76C431.82,427.41,427.79,429.18,425.81,430.09Z" style="fill:#263238"></path><path d="M458.69,428.33c.25,1.46.48,2.89.7,4.27,1.45,8.88,2.3,15.74,1.64,16.37-2,1.94-63.38,14.25-65.67,14s-1.62-6.83.38-9.21c1.22-1.44,9.59-7.63,16-12.25l0,0c4.11-3,7.38-5.3,7.38-5.3l-12.3-39.77,40.9-7.63S458.29,426,458.69,428.33Z" style="fill: rgb(235, 148, 129);"></path><path d="M395.36,462.94c2.3.27,63.62-12,65.67-14,.66-.64-.19-7.49-1.64-16.37-.22-1.38-.45-2.81-.7-4.27-.14-.82-1.5-6-3.18-12.3l-40.12,8.05,3.74,12.07s-3.28,2.33-7.39,5.3l0,0c-6.38,4.63-14.76,10.82-16,12.26C393.74,456.11,393.08,462.65,395.36,462.94Z" style="fill:#ebebeb"></path><path d="M394.85,463.34c1.52.17,28.12-5.11,47.39-9.44,4.46-1,8.53-1.95,11.8-2.76,4.52-1.14,7.52-2,7.95-2.42.75-.72-3.95-25.86-4.77-28.78l-40.77,8.44,2.39,7.54s-21.6,15.55-23.65,18S392.52,463,394.85,463.34Z" style="fill:#FCE693"></path><path d="M395.82,460.52c10.46-2.41,52.87-11.19,63.4-12.78.08,0,.09,0,0,.06-10.32,2.63-52.8,11.06-63.38,12.9C395.63,460.74,395.6,460.58,395.82,460.52Z" style="fill:#263238"></path><path d="M415,421.67c-.44-.22-18.89-50.11-24.34-71-7.87-30.18-15.48-79.38-17.78-89.63a150.59,150.59,0,0,1-9.52-36.76s49.57,0,49.57,0,13,24.88,6.3,42.45c-.61,1.61,8.66,63.74,13.45,73.8,4.15,8.7,21.75,72.06,21.75,72.06Z" style="fill: rgb(235, 148, 129);"></path><path d="M412.93,224.24,386.61,333.53v0c-6.29-29-11.83-64-13.72-72.5a150.35,150.35,0,0,1-9.53-36.76h49.58Z" style="fill:#263238"></path><path d="M343.21,441.83c4.22-.82,9.39-.2,12.64,2.79.12.11,0,.29-.18.25a59.16,59.16,0,0,0-12.44-2.51A.27.27,0,0,1,343.21,441.83Z" style="fill:#263238"></path><path d="M340.18,443.68c4.22-.81,9.38-.19,12.63,2.79.13.12,0,.3-.18.26a59.07,59.07,0,0,0-12.43-2.51A.27.27,0,0,1,340.18,443.68Z" style="fill:#263238"></path><path d="M337.14,445.54c4.22-.81,9.39-.2,12.63,2.79.13.12,0,.29-.17.25a59.94,59.94,0,0,0-12.44-2.51A.27.27,0,0,1,337.14,445.54Z" style="fill:#263238"></path><path d="M334.1,447.4c4.22-.82,9.39-.2,12.64,2.79.12.11,0,.29-.18.25a59.16,59.16,0,0,0-12.44-2.51A.27.27,0,0,1,334.1,447.4Z" style="fill:#263238"></path><path d="M337.28,438.11c3,2.31,6.9,3.23,10.39,4.5a.52.52,0,0,0,.66-.53.11.11,0,0,0,.1-.15,22.53,22.53,0,0,0-6.56-9.64c-1.77-1.47-4.87-2.48-6.52-.18S335.53,436.77,337.28,438.11Zm-1.09-3.39c-.78-4.63,4.21-2.23,5.48-1.09a24.3,24.3,0,0,1,2.25,2.4c1.47,1.75,2.67,3.67,4,5.55-1.68-.73-3.41-1.31-5.11-2C340.74,438.81,336.61,437.27,336.19,434.72Z" style="fill:#263238"></path><path d="M362.49,435.4c-1-2.62-4.29-2.4-6.36-1.4a22.46,22.46,0,0,0-8.71,7.75.11.11,0,0,0,.06.17.52.52,0,0,0,.51.67c3.7-.38,7.7-.33,11.17-1.83C361.19,439.88,363.47,437.89,362.49,435.4Zm-9,5.47c-1.82.23-3.63.37-5.44.67a64.26,64.26,0,0,1,5.19-4.41,23,23,0,0,1,2.77-1.79c1.5-.79,6.92-1.91,5.05,2.39C360,440.11,355.64,440.59,353.48,440.87Z" style="fill:#263238"></path><path d="M385.52,437c0,2.5-1.08,27.56-1.86,28.05-2.38,1.51-64.93,1.69-67.13,1s-.26-7,2.16-9c1.47-1.17,10.89-5.62,18.05-8.93h0c4.6-2.12,8.26-3.78,8.26-3.78l-.2-7.34-.56-33.43h41.32S385.79,420.74,385.52,437Z" style="fill: rgb(235, 148, 129);"></path><path d="M316.53,466c2.2.72,64.75.53,67.13-1,.77-.49,1.82-25.54,1.86-28,0-1.66.05-3.32.06-5H344.74l.09,5,.21,7.33s-3.68,1.66-8.27,3.78h0c-7.15,3.3-16.57,7.76-18.05,8.94C316.27,459,314.36,465.26,316.53,466Z" style="fill:#ebebeb"></path><path d="M315.05,466.49c1.45.47,28.57.48,48.32,0,4.57-.12,8.75-.26,12.12-.41,4.64-.23,7.76-.5,8.26-.82.88-.57,2.12-26.14,1.88-29.16l-41.33.22-.15,7.87s-24.44,11.12-26.93,13.12S312.82,465.75,315.05,466.49Z" style="fill:#FCE693"></path><path d="M316.55,463.92c10.73-.33,54-.65,64.67-.16.09,0,.09.07,0,.07-10.63.56-53.94.53-64.67.27C316.32,464.09,316.32,463.93,316.55,463.92Z" style="fill:#263238"></path><path d="M392.89,268.61s-7.06,69.31-7.17,70.94c-.05.64-.06,85.34-.06,85.34h-41s-.93-79.36-.22-89.15c.09-1.14,3.1-71.6,16.7-111.49H413s-.45,23.44-11.11,40.39A88,88,0,0,0,392.89,268.61Z" style="fill: rgb(235, 148, 129);"></path><path d="M361.1,224.25H413s14.31,20.09,8.94,42.89l7.43,48s-31.09,5.37-43.23,5.37-42-5.37-42-5.37S349.51,261.12,361.1,224.25Z" style="fill:#37474f"></path><path d="M393.61,297.83c.48-3.16,1.08-6.3,1.76-9.42s1.42-6.23,2.31-9.31q.65-2.31,1.48-4.58c.3-.75.6-1.51,1-2.25l.13-.27a1.12,1.12,0,0,1,.37-.38,3.75,3.75,0,0,1,.62-.29c.39-.16.76-.29,1.14-.42a55.73,55.73,0,0,0,8.8-3.65,35.34,35.34,0,0,1-8.49,4.47c-.37.15-.75.29-1.09.45a2.46,2.46,0,0,0-.46.23l-.05,0-.12.26a22.71,22.71,0,0,0-.91,2.15c-.52,1.49-1,3-1.47,4.52-.9,3.05-1.72,6.12-2.56,9.2Z" style="opacity:0.1"></path><path d="M379.32,172.49c3.23.18,5.93-5.26,6.8-9.11.07-.3-.8-3-1.74-6.32-.57-2-1.15-4.29-1.52-6.39l-12.63,5.59a34.23,34.23,0,0,1,2.73,7.85,4.49,4.49,0,0,1,.06.88.86.86,0,0,0,0,.15C373.06,166.83,376.2,172.32,379.32,172.49Z" style="fill: rgb(235, 148, 129);"></path><path d="M373,165v.14a7.84,7.84,0,0,0,1.36-.18c7.15-1.45,7.81-10.52,7.79-14l-11.95,5.29a33.91,33.91,0,0,1,2.72,7.85A4.57,4.57,0,0,1,373,165Z" style="fill:#263238"></path><path d="M381,130.27c3.35,4.89,5.38,19.12,2.62,23.8-4,6.8-13,10.14-19.35,4.79-6.2-5.19-8.53-23.22-5.23-27.73C363.87,124.49,376,123.05,381,130.27Z" style="fill: rgb(235, 148, 129);"></path><path d="M358.22,140.05s.81,3.34,3.24,3.63c.2,0,12.31,13.42,23.29,8.34,0,0,5.28-12.61.08-20.72-3.36-5.24-7.82-5.54-7.82-5.54s-10.5-4.5-18.64,2.21S354.59,140.81,358.22,140.05Z" style="fill:#263238"></path><path d="M361.51,206.84l-.41,17.41H413s-8-43.8-22-59c-7-7.61-14.12-5.91-19.36-.59-1.33,1.35-12.42,19.89-14.09,27.88C356.06,199.59,361.51,206.84,361.51,206.84Z" style="fill:#FCE693"></path><path d="M375.42,170.18a1.61,1.61,0,1,1-1.6-1.6A1.61,1.61,0,0,1,375.42,170.18Zm12.86-1.6a1.61,1.61,0,1,0,1.6,1.6A1.6,1.6,0,0,0,388.28,168.58Zm-7.82-8.46a1.64,1.64,0,0,0,1.18,0A7.75,7.75,0,0,0,380.46,160.12ZM359.35,192a1.61,1.61,0,1,0,1.6,1.6A1.6,1.6,0,0,0,359.35,192Zm14.47,0a1.61,1.61,0,1,0,1.6,1.6A1.61,1.61,0,0,0,373.82,192Zm14.46,0a1.61,1.61,0,1,0,1.6,1.6A1.6,1.6,0,0,0,388.28,192Zm14.47,0a1.61,1.61,0,1,0,1.6,1.6A1.61,1.61,0,0,0,402.75,192Zm-36.17-11.55a1.6,1.6,0,1,0,1.6,1.6A1.6,1.6,0,0,0,366.58,180.45Zm14.47,0a1.6,1.6,0,1,0,1.6,1.6A1.59,1.59,0,0,0,381.05,180.45Zm14.46,0a1.6,1.6,0,1,0,1.61,1.6A1.6,1.6,0,0,0,395.51,180.45Zm-21.69,35a1.61,1.61,0,1,0,1.6,1.6A1.61,1.61,0,0,0,373.82,215.42Zm14.46,0a1.61,1.61,0,1,0,1.6,1.6A1.6,1.6,0,0,0,388.28,215.42Zm14.47,0a1.61,1.61,0,1,0,1.6,1.6A1.61,1.61,0,0,0,402.75,215.42Zm-36.17-11.55a1.6,1.6,0,1,0,1.6,1.6A1.6,1.6,0,0,0,366.58,203.87Zm14.47,0a1.6,1.6,0,1,0,1.6,1.6A1.59,1.59,0,0,0,381.05,203.87Zm14.46,0a1.6,1.6,0,1,0,1.61,1.6A1.6,1.6,0,0,0,395.51,203.87Zm13,1a1.56,1.56,0,0,0,.48,1.8Q408.73,205.82,408.49,204.9Z" style="fill:#fff"></path><path d="M376.39,162.34c6.54.15,4.89,26.52-4.64,27.69S368.08,162.15,376.39,162.34Z" style="fill: rgb(235, 148, 129);"></path><path d="M368.9,167.33c-11.37,13.78-22.76,31.95-24.54,32.41-1.15.3-11.75.56-18.18-.32-6.05-.83-8.24,29.38-4.17,30.4,8.65,2.15,25.85-.09,33.34-4.92,5.46-3.52,17.24-36.29,21-48.47C381.33,160.19,375.75,159,368.9,167.33Z" style="fill: rgb(235, 148, 129);"></path><path d="M336.57,206.22s-2.32-2-10.39-6.8c-5.59-3.3-21.92-6.9-38.23,3.82-5.84,3.84-3.78,10.49,2.72,7a61.24,61.24,0,0,1,11.51-4.76s-3.17,7.29-.79,11.22a85.57,85.57,0,0,0,7,9.86,18.57,18.57,0,0,0,2-1.14s7,5.29,13.41,4.23Z" style="fill: rgb(235, 148, 129);"></path><path d="M321.09,198c-3.34.62-10.4,2.06-15.76,5.25-6,3.54-16.49,12-13.83,16.34,1.95,3.2,6.25.34,6.25.34s-3.62,4.4-1.22,6.91c2.18,2.29,5.37-.13,5.37-.13s-1.73,3.05.79,4.85c3,2.16,6.18-4.58,11.15-5C315,226.45,321.09,198,321.09,198Z" style="fill: rgb(235, 148, 129);"></path><path d="M310.12,209a27.62,27.62,0,0,0-12.38,10.86c-.06.13,0,.25.08.15A67.64,67.64,0,0,1,310.15,209S310.15,209,310.12,209Z" style="fill:#263238"></path><path d="M313.51,215.08c-2.53,1.22-8.8,5.92-11.7,11.58-.06.13,0,.24.09.14a72.52,72.52,0,0,1,11.65-11.66S313.55,215.07,313.51,215.08Z" style="fill:#263238"></path><path d="M371.75,190a54.83,54.83,0,0,1,2-6.5,53.59,53.59,0,0,1,2.67-6.25,51.84,51.84,0,0,1-2,6.5A54.34,54.34,0,0,1,371.75,190Z" style="fill:#263238"></path><path d="M376.64,180.14a5.38,5.38,0,0,1-1.12,2.33,5.77,5.77,0,0,1-2,1.66l1.59-2c.27-.32.51-.66.76-1S376.37,180.49,376.64,180.14Z" style="fill:#263238"></path><path d="M367.16,125.71s7.89-4.37,14.92,0,10.36,15.13,9.15,24.16,6.16,15,7,21.7-3.61,9.81-5.09,13.33c-1.69,4,5.09,18.35-12.17,21.67-21.58,4.16-29.83-9.11-27.63-20.09,1.08-5.37,4.1-9.19,4-13.54s-3.13-7.82-1.52-13.33,3.73-4.77,4.6-13.42S359.51,127.18,367.16,125.71Z" style="fill:#263238"></path><path d="M380.58,125.5a26.71,26.71,0,0,1,10.21,12.28,24.54,24.54,0,0,1,1.82,7.85c.23,3.53-.31,6.83,1,10.26,2.1,5.48,6.31,10.06,6.11,16.17a15.05,15.05,0,0,1-2.6,8c-1.86,2.76-4.52,4.94-6.08,7.89-.06.12-.25,0-.19-.1,1.3-2.63,3.41-4.64,5.16-7a15.35,15.35,0,0,0,3.19-9.6c-.16-5.81-4.31-10.27-6.25-15.57a18.39,18.39,0,0,1-.85-7.22A26.43,26.43,0,0,0,391,139.7a28.32,28.32,0,0,0-10.46-14.13S380.54,125.47,380.58,125.5Z" style="fill:#263238"></path><path d="M389.66,191.45a0,0,0,1,1,0,0S389.64,191.45,389.66,191.45Z" style="fill:#263238"></path><path d="M353.38,184.93c.54-2.6,1.9-5,2.44-7.54.65-3.12-.14-6.22-.73-9.28a19.68,19.68,0,0,1,1.17-12.59,71.39,71.39,0,0,0,3.69-7.94,32.89,32.89,0,0,0,1.65-9.37.06.06,0,0,1,.11,0,29.89,29.89,0,0,1-2.89,13.38c-1.17,2.45-2.64,4.75-3.31,7.4a21.83,21.83,0,0,0,.06,9.45,36,36,0,0,1,.8,6.45,18.13,18.13,0,0,1-1.53,6.36,22.34,22.34,0,0,0,.1,16.46c0,.09-.13.16-.17.07A21.19,21.19,0,0,1,353.38,184.93Z" style="fill:#263238"></path><path d="M398.77,170.8c-.19-4.79-3.53-8-5.55-12.18-1.53-3.14-2.57-6.48-2.06-9.93a.06.06,0,0,1,.11,0c-.26,5,1.83,9.53,4.6,13.71,1.84,2.78,3.36,5.46,3.38,8.81s-1.3,6-3.17,8.75a18.56,18.56,0,0,0-3.2,6,24,24,0,0,0-.32,7c0,.12-.19.12-.21,0-.31-3.58-.36-7.06,1.44-10.33C396,178.62,399,175.65,398.77,170.8Z" style="fill:#263238"></path><path d="M352.55,181.53a29,29,0,0,1,2.75-4.63,9.47,9.47,0,0,0,1.52-8.06c0-.08.1-.11.12,0,.88,2.63,1.09,4.82-.47,7.24-2.18,3.38-4.31,6.46-4.76,10.5-.79,7.16,3.25,13.84,9.81,17.47.1.05,0,.18-.08.13a17.87,17.87,0,0,1-10.17-13.4A17.07,17.07,0,0,1,352.55,181.53Z" style="fill:#263238"></path></g><g id="freepik--speech-bubble--inject-18"><path d="M436.26,109a22.8,22.8,0,0,1-38.09,14.42l-11.4,1.67,5.71-9.86a22.57,22.57,0,0,1-1.57-11A22.8,22.8,0,1,1,436.26,109Z" style="fill:#fff"></path><path d="M436.26,109a22.88,22.88,0,0,1-4.6,11.56,20.62,20.62,0,0,1-4.47,4.41,22.29,22.29,0,0,1-5.5,3.06,23.13,23.13,0,0,1-6.14,1.47,23.81,23.81,0,0,1-3.16.06,20.9,20.9,0,0,1-3.16-.33A23.08,23.08,0,0,1,398,123.65l.27.08-11.39,1.75-.83.13.42-.73,5.67-9.88,0,.39a23,23,0,0,1,1.4-20.32,23.38,23.38,0,0,1,7.14-7.6,23.21,23.21,0,0,1,20-2.7,23.42,23.42,0,0,1,8.79,5.39A23,23,0,0,1,436.26,109Zm0,0a22.55,22.55,0,0,0-25.85-24.67A22.22,22.22,0,0,0,401,88a23.48,23.48,0,0,0-6.83,7.44,22.45,22.45,0,0,0-1.28,19.57l.08.21-.11.18-5.74,9.84-.41-.6,11.42-1.6.15,0,.12.11a22.39,22.39,0,0,0,10.91,5.62,20.2,20.2,0,0,0,3.1.38,21.67,21.67,0,0,0,3.12,0,22.29,22.29,0,0,0,6.08-1.34,21.17,21.17,0,0,0,5.5-3,24.44,24.44,0,0,0,2.41-2,25.7,25.7,0,0,0,2.07-2.36A22.8,22.8,0,0,0,436.26,109Z" style="fill:#263238"></path><path d="M423.25,110.92a29.88,29.88,0,0,1-9.57,8.31,30,30,0,0,1-9.58-8.31c-3.37-4.47-3.2-11.45,1.62-13,5.34-1.67,8,6.35,8,6.35s2.66-8.07,8-6.35C426.44,99.52,426.63,106.45,423.25,110.92Z" style="fill:#FCE693"></path></g></svg>